<?xml version="1.0" encoding="utf-8" ?><svg xmlns="http://www.w3.org/2000/svg" xmlns:xlink="http://www.w3.org/1999/xlink" width="3162" height="3162" viewBox="0 0 3162 3162"><path fill="#5B2815" d="M1454.42 953.352C1454.72 949.513 1454.86 945.682 1455.03 941.836L1457.51 940.51C1471.46 997.666 1484.24 1080.97 1494.71 1139.85L1509.42 1223.04C1512.08 1238.23 1516.7 1261.9 1517.72 1276.89C1509.83 1285.02 1505.25 1288.12 1494.68 1292.44C1517 1394.99 1537.56 1497.92 1556.36 1601.18L1561.67 1629.46L1564.63 1599.54C1567.69 1552.39 1574.26 1490.01 1579.76 1442.6C1568.56 1437.89 1554.6 1434.44 1555.18 1420.12C1556.64 1384.5 1559 1348.94 1561.19 1313.35C1565.28 1242.81 1569.87 1172.29 1574.95 1101.81C1576.89 1095 1577.7 1092.03 1578.67 1085.08C1580.4 1109.98 1576.33 1152.96 1579.51 1175.3C1579.39 1209.3 1577.5 1243.45 1577.76 1277.32C1605.26 1268.44 1657.76 1264.8 1686.81 1268.73C1714.9 1268.13 1764.7 1273.47 1793.23 1276.72C1905.2 1289.47 2018.74 1310.55 2127.22 1341.1C2139.52 1344.56 2170.61 1353.76 2180.98 1358.85C2203.04 1364.63 2234.99 1379.22 2252.63 1393.92C2257.17 1387.68 2278.13 1320.92 2281.89 1309.59L2318.09 1203.41L2319.89 1204.21L2321.1 1210.81C2312.15 1238.38 2304.12 1270.81 2296.14 1299.02L2252.2 1450.68C2243.82 1479.22 2235.84 1508.04 2226.43 1536.24C2221.84 1550 2208.32 1548.25 2196.18 1548.25C2161.91 1681.24 2125.85 1813.77 2088 1945.8C2078.39 1979.5 2068.95 2013.25 2059.68 2047.05C2054.53 2065.76 2048.7 2089.73 2042.58 2107.43C2033.75 2139.48 2008.91 2150.23 1977.96 2144.73C1949.61 2139.7 1920.75 2135.09 1892.31 2130.53L1724.21 2103.94C1711.71 2101.95 1672.33 2094.56 1662.07 2096.41C1646.2 2091.6 1616.2 2087.51 1599.52 2085.55C1472.63 2103.99 1335.95 2103.31 1207.82 2099.15C1167.96 2097.85 932.202 2086.07 924.08 2043.98C929.321 2011.85 1070.92 1997.75 1100.85 1996.21C1085.99 1955.01 1065.13 1906.37 1048.67 1865.17C1014.34 1779.31 980.489 1693.26 947.12 1607.02C930.192 1563.07 911.082 1515.45 895.875 1471.31C887.062 1471.86 870.308 1474.35 865.74 1465.27C852.244 1438.44 840.709 1409.23 829.044 1381.57L749.369 1191.12C742.635 1175.01 736.931 1158.43 729.998 1142.42C726.794 1135.03 720.788 1132.17 717.737 1125.76C716.247 1122.63 716.388 1118.96 717.555 1115.76C739.323 1056.15 951.982 992.487 1011.07 967.244L1012.47 966.636C1018.39 974.907 1022.04 980.414 1029.32 987.549C988.71 995.788 733.668 1085.15 731.3 1121.36C740.384 1134.54 787.872 1131.18 802.765 1129.94C919.642 1120.19 1032.63 1082.38 1143.44 1046.08C1226.64 1018.82 1314.97 994.349 1393.41 955.197L1399.97 957.07C1243.91 1046.36 1085.66 1090.03 909.212 1121.68C847.499 1132.74 796.169 1144.73 732.683 1138.78C753.409 1181.72 773.843 1224.81 793.986 1268.03C798.105 1276.82 817.697 1319.85 821.094 1324.35C844.008 1299.81 890.27 1277.96 921.747 1264.75C1026.63 1211.95 1273.32 1142.79 1390.8 1130.07C1418.42 1125.16 1450.11 1124.06 1477.69 1129.23C1477.96 1120.61 1471.96 1083.26 1470.51 1072.92C1464.82 1033.11 1459.45 993.253 1454.42 953.352ZM2048.71 2050.71C2044.71 2051.11 2038.92 2051.87 2035.05 2052.05C2025.8 2053.9 2011.83 2053.26 2002.24 2053.52C1940.76 2055.54 1882.17 2034.34 1822.06 2028.05C1765.24 2022.1 1710.95 2017.33 1655.53 2001.87C1625.19 1994.33 1583.03 1980.09 1555.05 1966.27C1551.2 1999.86 1535.93 2053.92 1580.73 2062.77C1604.09 2067.38 1627.26 2071.78 1650.67 2076.06C1689.13 2083.06 1727.52 2090.37 1765.86 2097.98L1915.66 2126.33C1939.3 2130.67 1962.71 2135.4 1986.93 2138.55C2001.45 2140.43 2009.61 2137.86 2021.91 2129.98C2032.18 2123.4 2052.39 2058.31 2048.71 2050.71ZM1530.1 1838.59C1507.5 1848.31 1484.28 1856.51 1460.58 1863.15C1439.08 1869.1 1413.33 1874.57 1392.51 1881.35C1366.93 1889.67 1339.9 1901.2 1314.29 1910.39C1281.24 1922 1247.48 1931.48 1213.22 1938.77C1177.9 1946.38 1141.94 1950.68 1105.81 1951.61C1114.52 1973 1123.22 2011.71 1143.33 2024.29C1159.56 2034.45 1191.85 2021.4 1209.86 2016.28L1287 1994.5C1365.36 1972.73 1461.08 1948.67 1537.17 1923.99C1539.47 1896.75 1543.86 1858.53 1544 1832.04L1530.1 1838.59ZM1531.31 1994.4C1533.26 1973.69 1534.95 1952.95 1536.38 1932.2C1525.93 1936.59 1504.82 1942.43 1493.42 1945.95L1409.13 1972.13C1401.98 1974.37 1376.86 1981.68 1371.47 1984.92L1373.84 1986.88C1425.16 1986.58 1480.26 1990.39 1531.31 1994.4Z"/><path fill="#C48946" d="M1709.32 1466.14L1711.35 1466.21C1832.95 1492.55 1982.77 1526.69 2104.82 1538.18C2128.12 1540.22 2155.31 1542 2178.45 1540.96C2166.7 1595.36 2145.31 1665.06 2131.19 1720.75L2072.89 1958.91C2069.43 1973.06 2054.48 2039.65 2050.07 2046.46L2048.71 2050.71C2044.71 2051.11 2038.92 2051.87 2035.05 2052.05C2025.8 2053.9 2011.83 2053.26 2002.24 2053.52C1940.76 2055.54 1882.17 2034.34 1822.06 2028.05C1765.24 2022.1 1710.95 2017.33 1655.53 2001.87C1656.58 1992.99 1653.7 1985.8 1661.01 1979.71L1656.83 1978.65C1659.81 1968.87 1665.23 1900.92 1666.65 1886.37L1695.44 1598.71C1698.29 1569.99 1701.7 1530.16 1705.93 1500.58C1707.79 1498.52 1709.36 1496.78 1710.64 1495.36L1706.63 1492.88C1705.27 1486.41 1708.16 1473.28 1709.32 1466.14Z"/><path fill="#B76F1D" d="M2104.82 1538.18C2128.12 1540.22 2155.31 1542 2178.45 1540.96C2166.7 1595.36 2145.31 1665.06 2131.19 1720.75L2072.89 1958.91C2069.43 1973.06 2054.48 2039.65 2050.07 2046.46C2033.02 2041.82 2008.32 2038.6 1990.28 2035.85L1988.86 2034.72C1990.88 2019.09 2007.09 1957.76 2011.64 1938.77L2042.4 1810C2045.95 1795.16 2057.23 1743.32 2062.84 1733.54C2070.14 1698.46 2083.01 1655.17 2088.51 1621.43C2089.1 1614.81 2088.85 1610.03 2094.38 1605.99C2107.76 1585.11 2118.95 1579.82 2141.33 1572.63C2128.63 1570.59 2113.46 1569.27 2100.52 1567.77C2102.08 1560.4 2108.38 1544.3 2104.82 1538.18Z"/><path fill="#5B2815" d="M2088.51 1621.43L2091.47 1616.07L2094.21 1615.52C2098.89 1627.95 2019.02 1993.19 2010.75 2000.95C2005.15 1990.07 2057.61 1765.23 2062.84 1733.54C2070.14 1698.46 2083.01 1655.17 2088.51 1621.43Z"/><path fill="#C48946" d="M2115.12 1603.3C2117.89 1605.49 2116.91 1604.47 2118.41 1608.01C2099.21 1712.78 2077.84 1817.13 2054.32 1921.02C2050.75 1937.07 2034.32 2013.1 2029.29 2024.02L2027.19 2021.33C2024.07 2001.47 2101.84 1646.46 2115.12 1603.3Z"/><path fill="#5B2815" d="M1661.01 1979.71C1720.49 1992.05 1779.71 2011.25 1839.92 2021.95C1872.29 2027.7 1904.87 2028.45 1937.78 2030.38C1952.3 2031.24 1976.1 2034.54 1988.86 2034.72L1990.28 2035.85C2008.32 2038.6 2033.02 2041.82 2050.07 2046.46L2048.71 2050.71C2044.71 2051.11 2038.92 2051.87 2035.05 2052.05C2025.8 2053.9 2011.83 2053.26 2002.24 2053.52C1940.76 2055.54 1882.17 2034.34 1822.06 2028.05C1765.24 2022.1 1710.95 2017.33 1655.53 2001.87C1656.58 1992.99 1653.7 1985.8 1661.01 1979.71Z"/><path fill="#380000" d="M1990.28 2035.85C2008.32 2038.6 2033.02 2041.82 2050.07 2046.46L2048.71 2050.71C2044.71 2051.11 2038.92 2051.87 2035.05 2052.05C2020.85 2050.88 1998.96 2051.54 1984.18 2051.54C1985.66 2046.03 1986.63 2040 1990.28 2035.85Z"/><path fill="#E3AC67" d="M1766.3 1546.24C1759.12 1521.33 1750.87 1514.51 1730.48 1499.63C1773.14 1510.17 1823.29 1518.87 1867 1527.26C1944.5 1542.66 2022.36 1556.17 2100.52 1567.77C2113.46 1569.27 2128.63 1570.59 2141.33 1572.63C2118.95 1579.82 2107.76 1585.11 2094.38 1605.99C2091.11 1600.46 2088.18 1592.67 2084.04 1588.25C2054.03 1556.18 2017.53 1561.68 1988.11 1588.4C1987 1586.08 1985.78 1583.81 1984.47 1581.59C1965.41 1549.84 1910.33 1536.78 1878.46 1555.38C1858.98 1535.82 1829.2 1519.62 1800.31 1522.35C1785.15 1523.78 1774.9 1534.61 1766.3 1546.24Z"/><path fill="#E3AC67" d="M2004.72 1584.57L2008.08 1586.65C2011.88 1601.84 1936.16 1974.91 1928.15 2005.17L1924.71 2002.69C1923.93 1996.43 1935.21 1934.37 1937.04 1924.98C1958.73 1813.4 1977.68 1694.62 2004.72 1584.57Z"/><path fill="#E3AC67" d="M1896.29 1565.06C1896.93 1565.79 1897.86 1567.67 1898.38 1568.62C1897.12 1591.55 1889.01 1636.45 1885.17 1660.46C1875.29 1721.82 1864.84 1783.09 1853.81 1844.25C1848.01 1877.02 1841.91 1909.74 1835.5 1942.4C1833.26 1953.81 1829.27 1978.01 1825.46 1988.13L1822.83 1985.18C1821.46 1965.97 1885.95 1585.49 1896.29 1565.06Z"/><path fill="#E3AC67" d="M1785.37 1546.35C1786.87 1547.43 1787.19 1548.09 1788.4 1549.54C1788.63 1561.23 1785.03 1583.33 1783.39 1595.55C1779.65 1623.56 1775.72 1651.54 1771.61 1679.5C1761.9 1745.84 1751.55 1812.08 1740.57 1878.22C1735.6 1907.46 1730.57 1941 1724.16 1969.72C1721.65 1968.6 1723.02 1969.38 1720.24 1967.07C1720.48 1953.37 1725.09 1925.07 1727.03 1910.74C1732.44 1870.78 1738.2 1830.88 1744.3 1791.02C1752.59 1736.24 1761.27 1681.51 1770.34 1626.86C1773.93 1605.55 1779.7 1565.78 1785.37 1546.35Z"/><path fill="#5B2815" d="M1762.32 1557.12C1765 1558.8 1764.04 1558 1765.79 1560.92C1765.57 1575.91 1759.03 1617.4 1756.64 1634.63C1749.46 1686.99 1741.74 1739.27 1733.49 1791.47C1728 1826.26 1722.34 1861.02 1716.5 1895.76C1713.94 1911.02 1710.05 1938.67 1705.59 1952.36C1703.95 1951.37 1703.24 1950.44 1701.84 1949.07C1701.51 1943.74 1708.98 1892.46 1710.25 1882.93C1720.36 1807.91 1731.59 1733.05 1743.94 1658.37C1747.81 1634.67 1756.04 1576.9 1762.32 1557.12Z"/><path fill="#5B2815" d="M1981.58 1595.38L1984.99 1597.43C1987.77 1611.94 1919.47 1960.53 1909.67 1988.05L1906.5 1985.67C1902.59 1973.49 1972.28 1633.02 1981.58 1595.38Z"/><path fill="#5B2815" d="M1871.68 1576.71C1873.79 1577.63 1874.29 1577.23 1875.02 1578.99C1879.63 1590.13 1814.2 1954.2 1807.19 1970.56L1805.13 1969.01C1800.15 1958.05 1861.64 1617.42 1871.68 1576.71Z"/><path fill="#C48946" d="M1026.92 1433.71C1142.49 1401.84 1302.9 1368.2 1410.85 1322.99C1413.76 1331.97 1415.95 1345.76 1419.09 1352.44C1432.69 1347.34 1446.27 1342.16 1459.81 1336.92C1445.07 1349.22 1436 1358.91 1431.43 1378.54C1431.61 1386.43 1431.11 1387.55 1428.26 1394.98C1429.04 1399.16 1428.62 1399.63 1430.73 1402.91C1435.39 1420.08 1455.36 1495.5 1455.56 1509.38C1456.42 1525.61 1474.25 1597.9 1479.17 1618.59C1495.02 1685.41 1509.1 1754.37 1525.45 1820.85L1526.33 1821.46C1527.35 1828.87 1527.71 1831.56 1530.1 1838.59C1507.5 1848.31 1484.28 1856.51 1460.58 1863.15C1439.08 1869.1 1413.33 1874.57 1392.51 1881.35C1366.93 1889.67 1339.9 1901.2 1314.29 1910.39C1281.24 1922 1247.48 1931.48 1213.22 1938.77C1208.24 1934.04 1206.39 1924.17 1205.02 1917.39L1203.8 1917.44L1076.08 1578.74L1045.28 1496.57C1036.86 1473.48 1033.1 1457.2 1020.93 1435L1026.92 1433.71Z"/><path fill="#E3AC67" d="M1459.81 1336.92C1445.07 1349.22 1436 1358.91 1431.43 1378.54L1428.78 1388.5C1424.46 1386.06 1409.4 1375.86 1406.58 1374.95C1392.3 1370.3 1371.16 1373.33 1358.2 1381.04C1340.59 1391.53 1332.6 1402.77 1326.9 1421.74C1295.83 1394.34 1235.9 1406.92 1213.79 1439.65C1188.4 1431.32 1159.7 1429.91 1134.67 1441.69C1117.49 1449.78 1112.83 1464.74 1108.1 1481.24C1092.99 1462.38 1080.27 1460.16 1057.59 1455.26C1090.37 1448.03 1128.39 1436.92 1161.07 1427.94C1218.31 1412.3 1275.42 1396.16 1332.38 1379.52C1361.39 1370.86 1390.14 1360.99 1419.09 1352.44C1432.69 1347.34 1446.27 1342.16 1459.81 1336.92Z"/><path fill="#5B2815" d="M1525.45 1820.85L1526.33 1821.46C1527.35 1828.87 1527.71 1831.56 1530.1 1838.59C1507.5 1848.31 1484.28 1856.51 1460.58 1863.15C1439.08 1869.1 1413.33 1874.57 1392.51 1881.35C1366.93 1889.67 1339.9 1901.2 1314.29 1910.39C1281.24 1922 1247.48 1931.48 1213.22 1938.77C1208.24 1934.04 1206.39 1924.17 1205.02 1917.39C1237.54 1909.47 1270.14 1901.89 1302.82 1894.63C1360.8 1882.24 1408.52 1872.88 1462.12 1845.51C1480.05 1836.35 1506.3 1827.79 1525.45 1820.85Z"/><path fill="#E3AC67" d="M1233.12 1441.03L1236.37 1442.17C1243.29 1449.13 1353.97 1815.77 1358.58 1851C1354.84 1850.54 1356.63 1850.93 1353.11 1848.27C1322.09 1759.59 1290.12 1646.84 1264.31 1555.92L1243.78 1483.47C1240.55 1471.82 1234.67 1452.61 1233.12 1441.03Z"/><path fill="#E3AC67" d="M1340.84 1408.72C1353.59 1414.96 1440.2 1750.4 1452.42 1796.91C1454.16 1803.56 1457.76 1815.58 1456.43 1822.48C1444.87 1815.99 1356.46 1476.97 1344.81 1431.52C1343.33 1425.74 1340.27 1414.73 1340.84 1408.72Z"/><path fill="#E3AC67" d="M1127.15 1472.38C1127.64 1472.61 1128.15 1472.8 1128.62 1473.07C1139.99 1479.54 1247.59 1837.42 1259.69 1879.57L1255.94 1879.61C1248.22 1871.73 1128.35 1497.8 1127.15 1472.38Z"/><path fill="#5B2815" d="M1324.62 1429.02C1326.41 1429.73 1327.9 1429.97 1328.37 1431.29C1345.31 1478.68 1434.15 1791.23 1432.8 1814.67C1432.16 1814.32 1431.48 1814.05 1430.88 1813.63C1423.95 1808.75 1325.99 1461.21 1324.62 1429.02Z"/><path fill="#5B2815" d="M1110.61 1492.11L1114.79 1494.33C1130.63 1527.95 1236.13 1859.75 1233.76 1873.3C1222.47 1865.44 1158.95 1652.82 1148.08 1621.64C1143.82 1609.43 1111.02 1502.64 1110.61 1492.11Z"/><path fill="#5B2815" d="M1218.12 1459.91L1221.38 1461.9C1234.08 1488.98 1332.42 1820.14 1333.85 1843.34L1329.99 1841.48C1316.19 1809.57 1216.96 1480.04 1218.12 1459.91Z"/><path fill="#E3AC67" d="M1599.61 1435.78C1626.11 1441.72 1657.07 1446.16 1681.76 1452.19C1690.53 1453.59 1700.23 1455.35 1708.95 1456.42L1705.25 1458.62C1706.33 1462.95 1708.27 1461.55 1711.35 1466.21L1709.32 1466.14C1708.16 1473.28 1705.27 1486.41 1706.63 1492.88L1710.64 1495.36C1709.36 1496.78 1707.79 1498.52 1705.93 1500.58C1701.7 1530.16 1698.29 1569.99 1695.44 1598.71L1666.65 1886.37C1665.23 1900.92 1659.81 1968.87 1656.83 1978.65L1661.01 1979.71C1653.7 1985.8 1656.58 1992.99 1655.53 2001.87C1625.19 1994.33 1583.03 1980.09 1555.05 1966.27L1554.7 1960.07C1560.29 1920.22 1563.45 1869.5 1567.16 1828.83C1575.06 1744.09 1582.32 1659.28 1588.95 1574.43C1592.48 1530.25 1595.17 1483.42 1599.48 1439.7L1599.61 1435.78Z"/><path fill="#6E331E" d="M1554.7 1960.07C1589.25 1965.79 1622.47 1972.24 1656.83 1978.65L1661.01 1979.71C1653.7 1985.8 1656.58 1992.99 1655.53 2001.87C1625.19 1994.33 1583.03 1980.09 1555.05 1966.27L1554.7 1960.07Z"/><path fill="#6E331E" d="M1599.61 1435.78C1626.11 1441.72 1657.07 1446.16 1681.76 1452.19C1690.53 1453.59 1700.23 1455.35 1708.95 1456.42L1705.25 1458.62C1706.33 1462.95 1708.27 1461.55 1711.35 1466.21L1709.32 1466.14C1681.89 1457.45 1631.03 1448.01 1599.48 1439.7L1599.61 1435.78Z"/><path fill="#EBC083" d="M1675.35 1527.46L1677.9 1528.96C1680.65 1534.72 1673.38 1584.35 1672.13 1594.86C1662.71 1675.08 1652.13 1755.15 1640.43 1835.06C1635.89 1866.21 1629.06 1922.24 1621.84 1951.82C1620.34 1951.17 1619.6 1950.35 1618.26 1949.27C1617.72 1938.26 1627.87 1860.38 1629.65 1845.73C1638.5 1774.21 1648.15 1702.79 1658.6 1631.49C1662.05 1607.83 1669.57 1548.59 1675.35 1527.46Z"/><path fill="#6E331E" d="M1652.12 1538.07C1655.98 1540.04 1654.47 1538.76 1656.5 1542.23C1646.02 1639.54 1633.77 1736.65 1619.73 1833.51C1616.8 1853.86 1608.5 1919.31 1603.4 1934.51L1600.88 1933.27C1596.27 1922.49 1644.75 1566.95 1652.12 1538.07Z"/><path fill="#EBC083" d="M1621.52 1480.25C1643.43 1482.88 1682.76 1489.91 1704.52 1494.8L1704.77 1495.89L1684.63 1503.67C1671.03 1512.63 1666.58 1516.94 1655.83 1528.76C1646.95 1506.47 1638.34 1497.44 1621.52 1480.25Z"/><path fill="#E3AC67" d="M995.68 1433.47L1012.84 1428.38C1018.7 1431.07 1020.77 1432.02 1026.92 1433.71L1020.93 1435C1033.1 1457.2 1036.86 1473.48 1045.28 1496.57L1076.08 1578.74L1203.8 1917.44L1205.02 1917.39C1206.39 1924.17 1208.24 1934.04 1213.22 1938.77C1177.9 1946.38 1141.94 1950.68 1105.81 1951.61L1103.37 1946.25C1097.59 1928.14 1087.3 1903.33 1080.29 1885.19L1039.43 1779.72C998.199 1672.96 955.774 1566.65 912.168 1460.83L910.971 1456.86L995.68 1433.47Z"/><path fill="#6E331E" d="M1203.8 1917.44L1205.02 1917.39C1206.39 1924.17 1208.24 1934.04 1213.22 1938.77C1177.9 1946.38 1141.94 1950.68 1105.81 1951.61L1103.37 1946.25C1137.09 1935.77 1171 1927.63 1203.8 1917.44Z"/><path fill="#6E331E" d="M995.68 1433.47L1012.84 1428.38C1018.7 1431.07 1020.77 1432.02 1026.92 1433.71L1020.93 1435C997.583 1440.91 974.128 1446.4 950.579 1451.46C940.542 1453.7 921.166 1457.46 912.168 1460.83L910.971 1456.86L995.68 1433.47Z"/><path fill="#EBC083" d="M1019.2 1504.61C1022.45 1505.72 1021.51 1505.35 1024.38 1507.34C1042.12 1548.36 1160.09 1891.19 1158.83 1910.67C1157.97 1910.1 1156.99 1909.68 1156.23 1908.98C1147.29 1900.79 1023.06 1529.54 1019.2 1504.61Z"/><path fill="#6E331E" d="M1004.9 1523.54C1011.04 1527.27 1026.2 1573.63 1029.71 1583.37C1053.53 1649.79 1076.53 1716.51 1098.7 1783.5C1104.01 1799.52 1135.94 1892.45 1134.69 1903.37C1128.08 1898.93 1113.7 1854.63 1109.93 1844.21C1085.5 1776.09 1061.92 1707.67 1039.19 1638.97C1027.3 1603.11 1015.48 1566.4 1004.39 1530.22C1003.55 1527.47 1004.09 1526.03 1004.9 1523.54Z"/><path fill="#EBC083" d="M1030.95 1462.65L1032 1464.47C1014.72 1479.58 1008.07 1492.46 1002.52 1514.35C993.031 1506.35 985.882 1501.36 974.777 1496C966.632 1492.58 957.918 1489.48 949.622 1486.37C974.848 1478.23 1005.44 1469.44 1030.95 1462.65Z"/><path fill="#E3AC67" d="M1577.76 1277.32C1605.26 1268.44 1657.76 1264.8 1686.81 1268.73C1714.9 1268.13 1764.7 1273.47 1793.23 1276.72C1905.2 1289.47 2018.74 1310.55 2127.22 1341.1C2139.52 1344.56 2170.61 1353.76 2180.98 1358.85L2175.44 1359.75C2178.71 1361.84 2180.65 1361.96 2180.75 1364.72C2181.13 1375.1 2169.11 1416.63 2165.09 1425.03C2124.18 1425.33 2070.06 1420.16 2029.89 1415.59C1915.46 1402.7 1802.28 1380.52 1691.45 1349.28L1690.22 1348.57C1675.61 1345.85 1628.72 1328.04 1615.33 1321.11C1601.6 1317.77 1590.18 1309.98 1578.61 1302.24C1578.56 1296.09 1578.13 1290.25 1577.73 1284.13L1577.76 1277.32Z"/><path fill="#EBC083" d="M1577.76 1277.32C1605.26 1268.44 1657.76 1264.8 1686.81 1268.73C1696.08 1271.46 1697.02 1269.67 1697.69 1280.14C1684.67 1279.47 1667.02 1278.58 1654.38 1281.61L1695.95 1281.29C1695.23 1293.3 1693.08 1338.37 1690.22 1348.57C1675.61 1345.85 1628.72 1328.04 1615.33 1321.11C1601.6 1317.77 1590.18 1309.98 1578.61 1302.24C1578.56 1296.09 1578.13 1290.25 1577.73 1284.13L1577.76 1277.32Z"/><path fill="#E9A655" d="M1577.76 1277.32C1605.26 1268.44 1657.76 1264.8 1686.81 1268.73C1696.08 1271.46 1697.02 1269.67 1697.69 1280.14C1684.67 1279.47 1667.02 1278.58 1654.38 1281.61C1627.34 1284.07 1573.42 1285.24 1615.33 1321.11C1601.6 1317.77 1590.18 1309.98 1578.61 1302.24C1578.56 1296.09 1578.13 1290.25 1577.73 1284.13L1577.76 1277.32Z"/><path fill="#C48946" d="M1686.81 1268.73C1714.9 1268.13 1764.7 1273.47 1793.23 1276.72C1905.2 1289.47 2018.74 1310.55 2127.22 1341.1C2139.52 1344.56 2170.61 1353.76 2180.98 1358.85L2175.44 1359.75C2145.67 1352.94 2113.06 1342.4 2081.9 1334.99C2014.84 1319.27 1947.1 1306.6 1878.89 1297.04C1838.91 1291.31 1798.76 1286.8 1758.5 1283.51C1742.98 1282.29 1710.95 1282.63 1697.69 1280.14C1697.02 1269.67 1696.08 1271.46 1686.81 1268.73Z"/><path fill="#E3AC67" d="M1100.85 1996.21C1106.98 2005.92 1109.68 2017 1116.7 2026.49C1126.22 2039.38 1139.07 2045.58 1154.85 2046.25C1183.51 2047.48 1293.94 2007.98 1328.91 1996.86C1342.39 1992.58 1359.68 1984.73 1373.84 1986.88C1425.16 1986.58 1480.26 1990.39 1531.31 1994.4C1531.15 2021.04 1524.76 2041.83 1545.07 2064.67C1562.35 2084.1 1589.36 2079.81 1599.52 2085.55C1472.63 2103.99 1335.95 2103.31 1207.82 2099.15C1167.96 2097.85 932.202 2086.07 924.08 2043.98C929.321 2011.85 1070.92 1997.75 1100.85 1996.21Z"/><path fill="#E3AC67" d="M921.747 1264.75C1026.63 1211.95 1273.32 1142.79 1390.8 1130.07L1389.72 1133.79C1396.12 1133.1 1396.31 1132 1401.05 1134.39C1405.62 1148.84 1410.32 1179.12 1413.35 1195.37C1305.8 1249.02 1076.13 1320.19 956.788 1337.28L953.274 1338.41C952.143 1330.19 932.055 1279.15 926.261 1275.74L929.461 1274.24C926.948 1269.47 926.442 1267.39 921.747 1264.75Z"/><path fill="#C48946" d="M921.747 1264.75C1026.63 1211.95 1273.32 1142.79 1390.8 1130.07L1389.72 1133.79C1251.07 1155.65 1054.58 1216.66 929.461 1274.24C926.948 1269.47 926.442 1267.39 921.747 1264.75Z"/><path fill="#C48946" d="M1691.45 1349.28C1802.28 1380.52 1915.46 1402.7 2029.89 1415.59C2070.06 1420.16 2124.18 1425.33 2165.09 1425.03L2166.06 1425.29C2158.68 1451.83 2145.96 1504.96 2137.26 1528.92C2020.36 1503.59 1903.56 1487.35 1785.41 1469.27C1760.08 1465.4 1733.98 1461.59 1708.95 1456.42C1700.23 1455.35 1690.53 1453.59 1681.76 1452.19L1684.62 1450.79C1682.84 1439.33 1689.36 1364.4 1691.45 1349.28Z"/><path fill="#C48946" d="M1413.35 1195.37L1414.17 1195.44C1415.82 1219.08 1429.57 1273.78 1433.92 1300.88C1292.49 1339.77 1152.08 1382.28 1012.84 1428.38L995.68 1433.47C994.389 1432.19 991.04 1428.32 990.568 1426.95C985.974 1413.58 954.234 1346.36 956.788 1337.28C1076.13 1320.19 1305.8 1249.02 1413.35 1195.37Z"/><path fill="#B76F1D" d="M1410.85 1322.99C1429.77 1315.87 1459.95 1304.17 1476.58 1293.39C1491.76 1372.06 1507.97 1450.53 1525.19 1528.78L1546.17 1621.51C1548.52 1631.88 1557.09 1667.54 1557.05 1675.94C1556.95 1698.11 1553.3 1734.89 1550.25 1757.11C1550.16 1762.25 1550.16 1767.67 1549.88 1772.78C1549.31 1779.34 1547.45 1810.67 1545.38 1814.77C1545.93 1822.86 1545.8 1824.12 1544 1832.04L1530.1 1838.59C1527.71 1831.56 1527.35 1828.87 1526.33 1821.46L1525.45 1820.85C1509.1 1754.37 1495.02 1685.41 1479.17 1618.59C1474.25 1597.9 1456.42 1525.61 1455.56 1509.38C1455.36 1495.5 1435.39 1420.08 1430.73 1402.91C1428.62 1399.63 1429.04 1399.16 1428.26 1394.98C1431.11 1387.55 1431.61 1386.43 1431.43 1378.54C1436 1358.91 1445.07 1349.22 1459.81 1336.92C1446.27 1342.16 1432.69 1347.34 1419.09 1352.44C1415.95 1345.76 1413.76 1331.97 1410.85 1322.99Z"/><path fill="#C48946" d="M1549.88 1772.78L1548.42 1773.52C1536.48 1755.55 1452.96 1411.22 1447.44 1380.35L1449.24 1377.98C1460.94 1385.17 1536.91 1711.57 1550.25 1757.11C1550.16 1762.25 1550.16 1767.67 1549.88 1772.78Z"/><path fill="#5B2815" d="M1430.73 1402.91L1432.15 1398.4L1434.45 1398.11C1444.7 1412.36 1532.72 1766.65 1530.67 1781.78C1518.05 1772.8 1468.23 1541.2 1455.56 1509.38C1455.36 1495.5 1435.39 1420.08 1430.73 1402.91Z"/><path fill="#380000" d="M1545.38 1814.77C1545.93 1822.86 1545.8 1824.12 1544 1832.04L1530.1 1838.59C1527.71 1831.56 1527.35 1828.87 1526.33 1821.46C1532.72 1818.83 1538.83 1816.92 1545.38 1814.77Z"/><path fill="#E3AC67" d="M821.094 1324.35C844.008 1299.81 890.27 1277.96 921.747 1264.75C926.442 1267.39 926.948 1269.47 929.461 1274.24L926.261 1275.74C932.055 1279.15 952.143 1330.19 953.274 1338.41L956.788 1337.28C954.234 1346.36 985.974 1413.58 990.568 1426.95C991.04 1428.32 994.389 1432.19 995.68 1433.47L910.971 1456.86C909.799 1453.21 910.026 1453.36 907.22 1450.8C900.627 1450.14 888.497 1452.53 880.311 1453.18C867.012 1429.75 842.726 1372.62 830.548 1345.71C826.69 1338.05 823.75 1332.61 821.094 1324.35Z"/><path fill="#EBC083" d="M821.094 1324.35C844.008 1299.81 890.27 1277.96 921.747 1264.75C926.442 1267.39 926.948 1269.47 929.461 1274.24L926.261 1275.74C932.055 1279.15 952.143 1330.19 953.274 1338.41C936.461 1340.83 912.493 1343.48 896.379 1346.62C884.439 1349.61 842.613 1348.31 830.548 1345.71C826.69 1338.05 823.75 1332.61 821.094 1324.35Z"/><path fill="#E9A655" d="M821.094 1324.35C844.008 1299.81 890.27 1277.96 921.747 1264.75C926.442 1267.39 926.948 1269.47 929.461 1274.24L926.261 1275.74C908.353 1284.89 845.19 1313.36 850.896 1336.14C860.93 1347.7 882.04 1346.48 896.379 1346.62C884.439 1349.61 842.613 1348.31 830.548 1345.71C826.69 1338.05 823.75 1332.61 821.094 1324.35Z"/><path fill="#E3AC67" d="M1573.36 1419.85C1573.61 1385.05 1574.61 1317.18 1577.73 1284.13C1578.13 1290.25 1578.56 1296.09 1578.61 1302.24C1590.18 1309.98 1601.6 1317.77 1615.33 1321.11C1628.72 1328.04 1675.61 1345.85 1690.22 1348.57L1691.45 1349.28C1689.36 1364.4 1682.84 1439.33 1684.62 1450.79L1681.76 1452.19C1657.07 1446.16 1626.11 1441.72 1599.61 1435.78L1599.12 1429.77C1595 1425.47 1579.89 1421.78 1573.36 1419.85Z"/><path fill="#B76F1D" d="M1390.8 1130.07C1418.42 1125.16 1450.11 1124.06 1477.69 1129.23C1480.33 1134.6 1480.29 1141.06 1481.57 1147.11C1486.4 1186.96 1493.18 1230.15 1499.55 1269.91L1487.31 1276.4C1481.1 1279.64 1477.24 1283.76 1471.59 1287.74C1461.04 1295.16 1446.51 1298 1433.92 1300.88C1429.57 1273.78 1415.82 1219.08 1414.17 1195.44L1413.35 1195.37C1410.32 1179.12 1405.62 1148.84 1401.05 1134.39C1396.31 1132 1396.12 1133.1 1389.72 1133.79L1390.8 1130.07Z"/><path fill="#E9A655" d="M1390.8 1130.07C1418.42 1125.16 1450.11 1124.06 1477.69 1129.23C1480.33 1134.6 1480.29 1141.06 1481.57 1147.11C1479.49 1163.95 1429.54 1187.48 1414.17 1195.44L1413.35 1195.37C1410.32 1179.12 1405.62 1148.84 1401.05 1134.39C1396.31 1132 1396.12 1133.1 1389.72 1133.79L1390.8 1130.07Z"/><path fill="#B76F1D" d="M2180.98 1358.85C2203.04 1364.63 2234.99 1379.22 2252.63 1393.92C2252.27 1401.79 2248.96 1409.04 2246.53 1416.7C2234.92 1451.03 2219.52 1495.72 2210.22 1530.36C2203.57 1530.2 2186.89 1528.95 2181.69 1530.98L2179.12 1535.41C2168.21 1536.09 2148.99 1530.3 2137.26 1528.92C2145.96 1504.96 2158.68 1451.83 2166.06 1425.29L2165.09 1425.03C2169.11 1416.63 2181.13 1375.1 2180.75 1364.72C2180.65 1361.96 2178.71 1361.84 2175.44 1359.75L2180.98 1358.85Z"/><path fill="#E9A655" d="M2180.98 1358.85C2203.04 1364.63 2234.99 1379.22 2252.63 1393.92C2252.27 1401.79 2248.96 1409.04 2246.53 1416.7C2219.54 1424.07 2193.92 1425.2 2166.06 1425.29L2165.09 1425.03C2169.11 1416.63 2181.13 1375.1 2180.75 1364.72C2180.65 1361.96 2178.71 1361.84 2175.44 1359.75L2180.98 1358.85Z"/><path fill="#E3AC67" d="M1662.07 2096.41C1672.33 2094.56 1711.71 2101.95 1724.21 2103.94L1892.31 2130.53C1920.75 2135.09 1949.61 2139.7 1977.96 2144.73C2008.91 2150.23 2033.75 2139.48 2042.58 2107.43C2070.17 2110.28 2098.12 2114.46 2125.16 2120.69C2139.87 2124.09 2174.36 2131.22 2181.9 2145.97C2183.68 2149.44 2183.93 2153.11 2182.34 2156.74C2176.58 2169.88 2146.79 2176.55 2134.18 2179.73C1977.69 2219.26 1659.84 2215.94 1497.53 2191.86C1467.54 2187.41 1421.59 2181.57 1396.25 2165.58C1391.08 2162.32 1386.05 2158.34 1384.98 2151.99C1384.46 2148.86 1385.66 2145.7 1387.66 2143.27C1415.38 2109.6 1614.24 2098.52 1662.07 2096.41Z"/><path fill="#5B2815" d="M1576.55 1062.51C1574.41 1060.17 1573.52 1057.76 1573.61 1054.52C1573.76 1049.12 1577.81 1044.5 1581.99 1041.51C1639.85 1000.2 1906.81 1043.16 1979.85 1054.01C1974.79 1062.41 1968.19 1068.99 1961.2 1075.83C1907.63 1061.75 1629.76 1025.79 1590.83 1051.02C1589.36 1051.98 1588.91 1052.79 1587.96 1054.08C1587.58 1071.03 1632.62 1089.06 1646.2 1094.52C1756.08 1138.76 1874.9 1154.51 1991.34 1171.46C2062.12 1181.63 2146.77 1197.57 2217.66 1199.83C2229.21 1203.76 2245.11 1201.3 2251.04 1204.17L2248.31 1206.32C2241.69 1206.83 2235.06 1207.16 2228.43 1207.3C2162.49 1209.47 2096.48 1206.16 2031.08 1197.4C1992.12 1192.14 1953.35 1185.48 1914.86 1177.44C1853.81 1164.66 1622.67 1109.25 1583.11 1072.01C1579.91 1068.4 1579.06 1066.59 1576.55 1062.51Z"/><path fill="#E3AC67" d="M1979.85 1054.01C2001.82 1024.28 2007.67 987.687 2001.77 951.797C1982.8 836.558 1895.78 763.625 1913.67 639.269C1918.83 604.14 1932.29 570.748 1952.95 541.868C1966.15 523.654 1978.22 512.562 1995.65 498.858C1926.75 589.425 1919.44 672.591 1967.57 774.833C2007.39 859.418 2065.3 967.759 2000.26 1054.99C1999.59 1055.88 1998.91 1056.77 1998.21 1057.65C1990.72 1065.72 1985.42 1071.07 1977.23 1078.42C1964.94 1087.33 1934.45 1103 1919.45 1097.01C1938.22 1090.7 1945.48 1087.24 1961.2 1075.83C1968.19 1068.99 1974.79 1062.41 1979.85 1054.01Z"/><path fill="#E3AC67" d="M1879.15 347.108C1888.65 353.423 1895.97 373.05 1897.71 383.914C1910.82 459.971 1853.54 520.424 1813.11 578.021C1763.19 649.127 1771.73 717.577 1845.89 766.08C1842.95 767.587 1839.21 766.015 1835.05 765.255C1798.2 752.825 1767.63 721.121 1758.39 683.181C1724.52 544.055 1919 487.119 1879.15 347.108Z"/><path fill="#E3AC67" d="M990.875 604.131C1020.91 610.997 1035.85 623.092 1050.75 649.422C1110.59 755.105 986.832 856.223 1030.63 961.537C1035.04 971.253 1036.35 973.948 1042.82 982.775C1054.22 996.865 1061.43 999.973 1076.88 1009.43C1057.93 1004.42 1044.07 1001.49 1029.32 987.549C1022.04 980.414 1018.39 974.907 1012.47 966.636C938.987 838.73 1124.62 697.909 990.875 604.131Z"/><path fill="#E3AC67" d="M1113.12 463.054L1114.76 464.872C1108.12 473.677 1099.7 485.203 1097.04 495.96C1082.29 555.511 1128.62 604.539 1154.99 652.817C1173.22 686.177 1181.1 719.505 1170.18 756.455C1163.6 778.701 1152.28 789.905 1132.64 800.06L1131.17 799.124C1137.1 789.673 1146.71 779.461 1149.5 767.997C1173.75 668.238 1041.78 607.403 1077.49 504.616C1084.59 484.202 1094.19 472.785 1113.12 463.054Z"/><path fill="#5B2815" d="M1030.63 961.537C1121.62 933.06 1241.95 903.513 1337.74 897.052C1344.8 897.516 1357.71 896.309 1362 898.12L1362.01 900.985C1262.45 910.775 1140.28 954.768 1042.82 982.775C1036.35 973.948 1035.04 971.253 1030.63 961.537Z"/><defs><linearGradient id="gradient_0" gradientUnits="userSpaceOnUse" x1="2134.7078" y1="1122.3884" x2="2141.0056" y2="1088.0455"><stop offset="0" stop-color="#5F301F" stop-opacity="0.9254902"/><stop offset="1" stop-color="#5A2613"/></linearGradient></defs><path fill="url(#gradient_0)" d="M1998.21 1057.65C2021.68 1064.26 2048.48 1068.2 2072.03 1074.42C2140.19 1092.4 2236.21 1119.44 2298.38 1152.77L2293.28 1155.42C2244.42 1127.32 2039.67 1085.15 1977.23 1078.42C1985.42 1071.07 1990.72 1065.72 1998.21 1057.65Z"/><path fill="#6E331E" fill-opacity="0.80392158" d="M1337.74 897.052C1352.85 893.443 1373.52 893.488 1389.43 893.055C1404.7 892.64 1441.79 891.128 1450.33 906.047C1453.33 911.3 1457.48 934.216 1457.51 940.51L1455.03 941.836C1454.86 945.682 1454.72 949.513 1454.42 953.352C1451.74 941.276 1451.47 931.029 1449.41 919.229C1437.29 935.072 1417.71 948.376 1399.97 957.07L1393.41 955.197C1408.81 946.667 1443.14 929.288 1446.33 911.109C1439.38 889.928 1379.09 899.006 1362.01 900.985L1362 898.12C1357.71 896.309 1344.8 897.516 1337.74 897.052Z"/><path fill="#6E331E" fill-opacity="0.72549021" d="M2298.38 1152.77C2331.05 1172.2 2331.47 1175.12 2321.1 1210.81L2319.89 1204.21L2318.09 1203.41C2319.28 1199.72 2319.34 1199.76 2319.47 1195.92L2316.51 1195.55C2309.5 1198.73 2308.02 1199.27 2300.39 1200.54L2298.63 1200.82L2298.71 1199.11L2296.4 1197.48C2304.53 1193.29 2325.73 1191.89 2322.93 1176.25C2316.41 1167.7 2302.7 1160.58 2293.28 1155.42L2298.38 1152.77Z"/><path fill="#6E331E" fill-opacity="0.7764706" d="M1576.55 1062.51C1579.06 1066.59 1579.91 1068.4 1583.11 1072.01C1577.67 1083.75 1583.83 1155.7 1579.51 1175.3C1576.33 1152.96 1580.4 1109.98 1578.67 1085.08C1577.7 1092.03 1576.89 1095 1574.95 1101.81C1575.29 1088.87 1577.97 1074.53 1576.55 1062.51Z"/><path fill="#6E331E" fill-opacity="0.84313726" d="M2296.4 1197.48L2298.71 1199.11L2298.63 1200.82C2284.5 1204.9 2263.41 1205.44 2248.31 1206.32L2251.04 1204.17C2245.11 1201.3 2229.21 1203.76 2217.66 1199.83C2244.84 1200.4 2269.27 1201.18 2296.4 1197.48Z"/><path fill="#F2F0EE" fill-opacity="0.06666667" d="M1556.36 1601.18C1562.59 1601.46 1560.02 1602.35 1564.63 1599.54L1561.67 1629.46L1556.36 1601.18Z"/></svg>